<?xml version="1.0" encoding="utf-8"?>
<svg id="master-artboard" viewBox="0 0 1400 980" version="1.1" xmlns="http://www.w3.org/2000/svg" x="0px" y="0px" enable-background="new 0 0 1400 980" width="1400px" height="980px">
<path d="M 0 0 H 1400 V 980 H 0 V 0 Z" fill="#FFFFFF" transform="matrix(1, 0, 0, 1, 0, 0)"/><g transform="matrix(1, 0, 0, 1, 0, 0)">
			<g>
				<path fill="#939598" d="M423,377.7H212.1c-34.3,0-62.2-27.9-62.2-62.2V116.8c0-6.5-5.3-11.8-11.8-11.8h-15.8c-3.9,0-7-3.1-7-7&#10;&#9;&#9;&#9;&#9;&#9;s3.1-7,7-7h15.8c14.2,0,25.8,11.6,25.8,25.8v198.7c0,26.6,21.6,48.2,48.2,48.2H423c3.9,0,7,3.1,7,7S426.8,377.7,423,377.7z"/>
			</g>
			<path d="M 198.899994 145.5 H 208.199994 V 311.5 H 198.899994 V 145.5 Z" fill="#A7A9AC"/>
			<path d="M 239.899994 145.5 H 249.199994 V 311.5 H 239.899994 V 145.5 Z" fill="#A7A9AC"/>
			<path d="M 280.799988 145.5 H 290.099988 V 311.5 H 280.799988 V 145.5 Z" fill="#A7A9AC"/>
			<path d="M 321.799988 145.5 H 331.099988 V 311.5 H 321.799988 V 145.5 Z" fill="#A7A9AC"/>
			<path d="M 362.700012 145.5 H 372.000012 V 311.5 H 362.700012 V 145.5 Z" fill="#A7A9AC"/>
			<path d="M 403.700012 145.5 H 413.000012 V 311.5 H 403.700012 V 145.5 Z" fill="#A7A9AC"/>
			<path d="M 156.899994 188.300003 H 454.100006 V 197.200003 H 156.899994 V 188.300003 Z" fill="#BCBEC0"/>
			<path d="M 156.899994 225.199997 H 454.100006 V 234.099997 H 156.899994 V 225.199997 Z" fill="#BCBEC0"/>
			<path d="M 156.899994 262.100006 H 454.100006 V 271.000006 H 156.899994 V 262.100006 Z" fill="#BCBEC0"/>
			<path fill="#A7A9AC" d="M158,142.4c-5,0-9,4-9,9v154.3c0,5,4,9,9,9s9-4,9-9V151.4C167,146.4,162.9,142.4,158,142.4z"/>
			<path fill="#A7A9AC" d="M454,142.4c-5,0-9,4-9,9v154.3c0,5,4,9,9,9s9-4,9-9V151.4C463,146.4,458.9,142.4,454,142.4z"/>
			<path fill="#BCBEC0" d="M454,160.4H158c-5,0-9-4-9-9v0c0-5,4-9,9-9h296c5,0,9,4,9,9v0C463,156.3,458.9,160.4,454,160.4z"/>
			<path fill="#BCBEC0" d="M454,314.9H158c-5,0-9-4-9-9l0,0c0-5,4-9,9-9h296c5,0,9,4,9,9l0,0C463,310.8,458.9,314.9,454,314.9z"/>
			<g>
				<path d="M 268.600002 417 A 31.299999 31.299999 0 0 1 237.300003 448.299999 A 31.299999 31.299999 0 0 1 206.000004 417 A 31.299999 31.299999 0 0 1 237.300003 385.700001 A 31.299999 31.299999 0 0 1 268.600002 417 Z" fill="#616262"/>
				<path fill="#BCBEC0" d="M237.3,431.4c-7.9,0-14.3-6.4-14.3-14.3s6.4-14.3,14.3-14.3s14.3,6.4,14.3,14.3S245.2,431.4,237.3,431.4&#10;&#9;&#9;&#9;&#9;&#9;z"/>
				<path fill="#A7A9AC" d="M267,363.4h-59.3l16.2,50.2c1.9,5.9,7.3,9.8,13.5,9.8h0c6.2,0,11.6-4,13.5-9.8L267,363.4z"/>
			</g>
			<g>
				<path d="M 425.400005 417 A 31.299999 31.299999 0 0 1 394.100006 448.299999 A 31.299999 31.299999 0 0 1 362.800007 417 A 31.299999 31.299999 0 0 1 394.100006 385.700001 A 31.299999 31.299999 0 0 1 425.400005 417 Z" fill="#616262"/>
				<path fill="#BCBEC0" d="M394.1,431.4c-7.9,0-14.3-6.4-14.3-14.3s6.4-14.3,14.3-14.3s14.3,6.4,14.3,14.3S402,431.4,394.1,431.4z"/>
				<path fill="#A7A9AC" d="M423.7,363.4h-59.3l16.2,50.2c1.9,5.9,7.3,9.8,13.5,9.8h0c6.2,0,11.6-4,13.5-9.8L423.7,363.4z"/>
			</g>
			<path d="M 61.299999 87.699997 H 138.999996 V 108.999996 H 61.299999 V 87.699997 Z" fill="#EF6B60"/>
		</g><g transform="matrix(1, 0, 0, 1, 0, 0)">
				
					<path d="M 550 202.399994 H 733.100006 V 210.399994 H 550 V 202.399994 Z" transform="matrix(0.1585 0.9874 -0.9874 0.1585 743.7368 -459.7535)" fill="#A7A9AC"/>
			</g><path d="M 596.299988 206.100006 H 770.299988 V 214.100006 H 596.299988 V 206.100006 Z" transform="matrix(0.07898981869220734, 0.9968999624252319, -0.9968999624252319, 0.07898981869220734, 838.7858276367188, -487.6640930175781)" fill="#A7A9AC"/><path d="M 720.299988 130.899994 H 728.299988 V 296.899994 H 720.299988 V 130.899994 Z" fill="#A7A9AC" transform="matrix(1, 0, 0, 1, 0, 0)"/><path d="M 761.099976 138.100006 H 769.099976 V 297.200012 H 761.099976 V 138.100006 Z" transform="matrix(0.996399998664856, 0.08532843738794327, -0.08532843738794327, 0.996399998664856, 21.358600616455078, -64.49500274658203)" fill="#A7A9AC"/><path d="M 802.400024 145.600006 H 810.400024 V 298.200012 H 802.400024 V 145.600006 Z" transform="matrix(0.9830000400543213, 0.1835000067949295, -0.1835000067949295, 0.9830000400543213, 54.4015007019043, -144.20840454101562)" fill="#A7A9AC"/><path d="M 845.700012 149.899994 H 853.700012 V 300.599991 H 845.700012 V 149.899994 Z" transform="matrix(0.9514000415802002, 0.30809998512268066, -0.30809998512268066, 0.9514000415802002, 110.71019744873047, -250.83729553222656)" fill="#A7A9AC"/><path d="M 591 172.100006 H 905.899994 V 180.100006 H 591 V 172.100006 Z" transform="matrix(0.9940000176429749, 0.1096000075340271, -0.1096000075340271, 0.9940000176429749, 23.800199508666992, -80.9385986328125)" fill="#BCBEC0"/><path d="M 602.900024 214.300003 H 891.900024 V 222.300003 H 602.900024 V 214.300003 Z" transform="matrix(0.9965999722480774, 0.08219971507787704, -0.08219971507787704, 0.9965999722480774, 20.475099563598633, -60.70019912719727)" fill="#BCBEC0"/><path d="M 614.900024 255.100006 H 878.100037 V 263.100006 H 614.900024 V 255.100006 Z" transform="matrix(0.9993000030517578, 0.03609813004732132, -0.03609813004732132, 0.9993000030517578, 9.839900016784668, -26.776100158691413)" fill="#BCBEC0"/><path fill="#A7A9AC" d="M860.3,306.9c-1,0-1.9-0.2-2.9-0.6c-3.8-1.6-5.6-6-4-9.8L911,158.1c1.6-3.8,6-5.6,9.8-4&#10;&#9;&#9;&#9;&#9;&#9;c3.8,1.6,5.6,6,4,9.8l-57.7,138.3C866,305.1,863.2,306.9,860.3,306.9z" transform="matrix(1, 0, 0, 1, 0, 0)"/><path fill="#A7A9AC" d="M624.7,307.1c-3.4,0-6.5-2.4-7.3-5.9l-43.5-195.4h-33.2c-4.1,0-7.5-3.4-7.5-7.5s3.4-7.5,7.5-7.5h39.2&#10;&#9;&#9;&#9;&#9;&#9;c3.5,0,6.6,2.4,7.3,5.9L632,298c0.9,4-1.6,8.1-5.7,8.9C625.8,307,625.2,307.1,624.7,307.1z" transform="matrix(1, 0, 0, 1, 0, 0)"/><path fill="#939598" d="M858.9,379.6H605.2c-24.1,0-43.8-19.6-43.8-43.8s19.6-43.8,43.8-43.8h257.7c4.1,0,7.5,3.4,7.5,7.5&#10;&#9;&#9;&#9;&#9;&#9;s-3.4,7.5-7.5,7.5H605.2c-15.9,0-28.8,12.9-28.8,28.8s12.9,28.8,28.8,28.8h253.7c4.1,0,7.5,3.4,7.5,7.5S863.1,379.6,858.9,379.6&#10;&#9;&#9;&#9;&#9;&#9;z" transform="matrix(1, 0, 0, 1, 0, 0)"/><path d="M 670.299999 417 A 31.299999 31.299999 0 0 1 639 448.299999 A 31.299999 31.299999 0 0 1 607.700001 417 A 31.299999 31.299999 0 0 1 639 385.700001 A 31.299999 31.299999 0 0 1 670.299999 417 Z" fill="#616262" transform="matrix(1, 0, 0, 1, 0, 0)"/><path fill="#BCBEC0" d="M639,431.4c-7.9,0-14.3-6.4-14.3-14.3s6.4-14.3,14.3-14.3s14.3,6.4,14.3,14.3S646.9,431.4,639,431.4z" transform="matrix(1, 0, 0, 1, 0, 0)"/><path fill="#A7A9AC" d="M668.7,363.4h-59.3l16.2,50.2c1.9,5.9,7.3,9.8,13.5,9.8h0c6.2,0,11.6-4,13.5-9.8L668.7,363.4z" transform="matrix(1, 0, 0, 1, 0, 0)"/><path d="M 827.099987 417 A 31.299999 31.299999 0 0 1 795.799988 448.299999 A 31.299999 31.299999 0 0 1 764.499989 417 A 31.299999 31.299999 0 0 1 795.799988 385.700001 A 31.299999 31.299999 0 0 1 827.099987 417 Z" fill="#616262" transform="matrix(1, 0, 0, 1, 0, 0)"/><path fill="#BCBEC0" d="M795.8,431.4c-7.9,0-14.3-6.4-14.3-14.3s6.4-14.3,14.3-14.3s14.3,6.4,14.3,14.3S803.7,431.4,795.8,431.4&#10;&#9;&#9;&#9;&#9;&#9;z" transform="matrix(1, 0, 0, 1, 0, 0)"/><path fill="#A7A9AC" d="M825.5,363.4h-59.3l16.2,50.2c1.9,5.9,7.3,9.8,13.5,9.8l0,0c6.2,0,11.6-4,13.5-9.8L825.5,363.4z" transform="matrix(1, 0, 0, 1, 0, 0)"/><path d="M 463 87.699997 H 540.699997 V 108.999996 H 463 V 87.699997 Z" fill="#EF6B60" transform="matrix(1, 0, 0, 1, 0, 0)"/><path fill="#BCBEC0" d="M918.9,167.9c-0.4,0-0.7,0-1.1-0.1l-336.2-49.6c-4.1-0.6-6.9-4.4-6.3-8.5c0.6-4.1,4.4-6.9,8.5-6.3&#10;&#9;&#9;&#9;&#9;&#9;L920,152.9c4.1,0.6,6.9,4.4,6.3,8.5C925.8,165.2,922.6,167.9,918.9,167.9z" transform="matrix(1, 0, 0, 1, 0, 0)"/><g transform="matrix(1, 0, 0, 1, 0, 0)">
				<path fill="#939598" d="M1267,377.7h-210.9c-34.3,0-62.2-27.9-62.2-62.2V116.8c0-6.5-5.3-11.8-11.8-11.8h-15.8c-3.9,0-7-3.1-7-7&#10;&#9;&#9;&#9;&#9;&#9;s3.1-7,7-7h15.8c14.2,0,25.8,11.6,25.8,25.8v198.7c0,26.6,21.6,48.2,48.2,48.2H1267c3.9,0,7,3.1,7,7S1270.9,377.7,1267,377.7z"/>
			</g><path d="M 1112.700024 417 A 31.299999 31.299999 0 0 1 1081.400024 448.299999 A 31.299999 31.299999 0 0 1 1050.100025 417 A 31.299999 31.299999 0 0 1 1081.400024 385.700001 A 31.299999 31.299999 0 0 1 1112.700024 417 Z" fill="#616262" transform="matrix(1, 0, 0, 1, 0, 0)"/><path fill="#BCBEC0" d="M1081.4,431.4c-7.9,0-14.3-6.4-14.3-14.3s6.4-14.3,14.3-14.3s14.3,6.4,14.3,14.3&#10;&#9;&#9;&#9;&#9;&#9;S1089.3,431.4,1081.4,431.4z" transform="matrix(1, 0, 0, 1, 0, 0)"/><path fill="#A7A9AC" d="M1111,363.4h-59.3l16.2,50.2c1.9,5.9,7.3,9.8,13.5,9.8l0,0c6.2,0,11.6-4,13.5-9.8L1111,363.4z" transform="matrix(1, 0, 0, 1, 0, 0)"/><path d="M 1269.399975 417 A 31.299999 31.299999 0 0 1 1238.099976 448.299999 A 31.299999 31.299999 0 0 1 1206.799976 417 A 31.299999 31.299999 0 0 1 1238.099976 385.700001 A 31.299999 31.299999 0 0 1 1269.399975 417 Z" fill="#616262" transform="matrix(1, 0, 0, 1, 0, 0)"/><path fill="#BCBEC0" d="M1238.1,431.4c-7.9,0-14.3-6.4-14.3-14.3s6.4-14.3,14.3-14.3s14.3,6.4,14.3,14.3&#10;&#9;&#9;&#9;&#9;&#9;S1246,431.4,1238.1,431.4z" transform="matrix(1, 0, 0, 1, 0, 0)"/><path fill="#A7A9AC" d="M1267.8,363.4h-59.3l16.2,50.2c1.9,5.9,7.3,9.8,13.5,9.8l0,0c6.2,0,11.6-4,13.5-9.8L1267.8,363.4z" transform="matrix(1, 0, 0, 1, 0, 0)"/><path d="M 905.400024 87.699997 H 983.100021 V 108.999996 H 905.400024 V 87.699997 Z" fill="#EF6B60" transform="matrix(1, 0, 0, 1, 0, 0)"/><path d="M 1007.900024 130.899994 H 1316.900024 V 154.899994 H 1007.900024 V 130.899994 Z" fill="#BCBEC0" transform="matrix(1, 0, 0, 1, 0, 0)"/><path fill="#999999" d="M1007.9,154.9v170.6h206.9c48.1,0,87.1-39,87.1-87.1v-83.5H1007.9z M1040.3,298.5c0,4.6-3.7,8.3-8.3,8.3&#10;&#9;&#9;&#9;&#9;&#9;s-8.3-3.7-8.3-8.3V170.4c0-4.6,3.7-8.3,8.3-8.3s8.3,3.7,8.3,8.3V298.5z M1081.4,298.5c0,4.6-3.7,8.3-8.3,8.3&#10;&#9;&#9;&#9;&#9;&#9;c-4.6,0-8.3-3.7-8.3-8.3V170.4c0-4.6,3.7-8.3,8.3-8.3c4.6,0,8.3,3.7,8.3,8.3V298.5z M1122.4,298.5c0,4.6-3.7,8.3-8.3,8.3l0,0&#10;&#9;&#9;&#9;&#9;&#9;c-4.6,0-8.3-3.7-8.3-8.3V170.4c0-4.6,3.7-8.3,8.3-8.3l0,0c4.6,0,8.3,3.7,8.3,8.3V298.5z M1163.5,298.5c0,4.6-3.7,8.3-8.3,8.3&#10;&#9;&#9;&#9;&#9;&#9;s-8.3-3.7-8.3-8.3V170.4c0-4.6,3.7-8.3,8.3-8.3s8.3,3.7,8.3,8.3V298.5z M1204.6,298.5c0,4.6-3.7,8.3-8.3,8.3&#10;&#9;&#9;&#9;&#9;&#9;c-4.6,0-8.3-3.7-8.3-8.3V170.4c0-4.6,3.7-8.3,8.3-8.3c4.6,0,8.3,3.7,8.3,8.3V298.5z M1245.6,298.5c0,4.6-3.7,8.3-8.3,8.3l0,0&#10;&#9;&#9;&#9;&#9;&#9;c-4.6,0-8.3-3.7-8.3-8.3V170.4c0-4.6,3.7-8.3,8.3-8.3l0,0c4.6,0,8.3,3.7,8.3,8.3V298.5z M1286.7,263.7c0,4.6-3.7,8.3-8.3,8.3&#10;&#9;&#9;&#9;&#9;&#9;c-4.6,0-8.3-3.7-8.3-8.3v-93.3c0-4.6,3.7-8.3,8.3-8.3c4.6,0,8.3,3.7,8.3,8.3V263.7z" transform="matrix(1, 0, 0, 1, 0, 0)"/><g transform="matrix(1, 0, 0, 1, 0, 0)">
				<path fill="#A7A9AC" d="M472.2,835.6c-1.4,0-2.8-0.5-3.9-1.4L369.1,749H322l-93.7,85.1c-2.5,2.2-6.2,2-8.5-0.4&#10;&#9;&#9;&#9;&#9;&#9;c-2.2-2.5-2-6.2,0.4-8.5l95.4-86.6c1.1-1,2.5-1.6,4-1.6h51.7c1.4,0,2.8,0.5,3.9,1.4l100.8,86.6c2.5,2.2,2.8,5.9,0.6,8.5&#10;&#9;&#9;&#9;&#9;&#9;C475.5,834.9,473.9,835.6,472.2,835.6z"/>
			</g><path d="M 145.5 646.400024 H 328.600006 V 654.400024 H 145.5 V 646.400024 Z" transform="matrix(0.15850000083446503, 0.9874000549316406, -0.9874000549316406, 0.15850000083446503, 841.6055297851562, 313.2684020996094)" fill="#A7A9AC"/><path d="M 191.699997 650 H 365.699997 V 658 H 191.699997 V 650 Z" transform="matrix(0.07898981869220734, 0.9968999624252319, -0.9968999624252319, 0.07898981869220734, 908.7183227539062, 324.4953918457031)" fill="#A7A9AC"/><path d="M 315.700012 574.799988 H 323.700012 V 740.799988 H 315.700012 V 574.799988 Z" fill="#A7A9AC" transform="matrix(1, 0, 0, 1, 0, 0)"/><path d="M 356.600006 582 H 364.600006 V 741.100006 H 356.600006 V 582 Z" transform="matrix(0.996399998664856, 0.08532843738794327, -0.08532843738794327, 0.996399998664856, 57.762699127197266, -28.35530090332032)" fill="#A7A9AC"/><path d="M 397.899994 589.5 H 405.899994 V 742.100006 H 397.899994 V 589.5 Z" transform="matrix(0.9830000400543213, 0.1835000067949295, -0.1835000067949295, 0.9830000400543213, 128.989501953125, -62.4368019104004)" fill="#A7A9AC"/><path d="M 441.200012 593.799988 H 449.200012 V 744.499985 H 441.200012 V 593.799988 Z" transform="matrix(0.9514000415802002, 0.30809998512268066, -0.30809998512268066, 0.9514000415802002, 227.7993927001953, -104.60350036621094)" fill="#A7A9AC"/><path d="M 186.399994 616 H 501.299988 V 624 H 186.399994 V 616 Z" transform="matrix(0.9940000176429749, 0.1096000075340271, -0.1096000075340271, 0.9940000176429749, 70.00140380859375, -33.94229888916016)" fill="#BCBEC0"/><path d="M 198.399994 658.200012 H 487.399994 V 666.200012 H 198.399994 V 658.200012 Z" transform="matrix(0.9965999722480774, 0.08219971507787704, -0.08219971507787704, 0.9965999722480774, 55.59659957885742, -25.94300079345704)" fill="#BCBEC0"/><path d="M 210.300003 699 H 473.500015 V 707 H 210.300003 V 699 Z" transform="matrix(0.9993000030517578, 0.03609813004732132, -0.03609813004732132, 0.9993000030517578, 25.60110092163086, -11.882800102233887)" fill="#BCBEC0"/><path fill="#A7A9AC" d="M455.7,750.8c-1,0-1.9-0.2-2.9-0.6c-3.8-1.6-5.6-6-4-9.8l57.7-138.3c1.6-3.8,6-5.6,9.8-4&#10;&#9;&#9;&#9;&#9;&#9;c3.8,1.6,5.6,6,4,9.8l-57.7,138.3C461.4,749.1,458.6,750.8,455.7,750.8z" transform="matrix(1, 0, 0, 1, 0, 0)"/><path fill="#A7A9AC" d="M220.1,751c-3.4,0-6.5-2.4-7.3-5.9l-43.5-195.4h-33.2c-4.1,0-7.5-3.4-7.5-7.5s3.4-7.5,7.5-7.5h39.2&#10;&#9;&#9;&#9;&#9;&#9;c3.5,0,6.6,2.4,7.3,5.9l44.8,201.2c0.9,4-1.6,8.1-5.7,8.9C221.2,751,220.7,751,220.1,751z" transform="matrix(1, 0, 0, 1, 0, 0)"/><path d="M 265.799999 861 A 31.299999 31.299999 0 0 1 234.5 892.299999 A 31.299999 31.299999 0 0 1 203.200001 861 A 31.299999 31.299999 0 0 1 234.5 829.700001 A 31.299999 31.299999 0 0 1 265.799999 861 Z" fill="#616262" transform="matrix(1, 0, 0, 1, 0, 0)"/><path fill="#BCBEC0" d="M234.5,875.3c-7.9,0-14.3-6.4-14.3-14.3s6.4-14.3,14.3-14.3s14.3,6.4,14.3,14.3S242.4,875.3,234.5,875.3z&#10;&#9;&#9;&#9;&#9;" transform="matrix(1, 0, 0, 1, 0, 0)"/><path d="M 58.5 531.599976 H 136.199997 V 552.899975 H 58.5 V 531.599976 Z" fill="#EF6B60" transform="matrix(1, 0, 0, 1, 0, 0)"/><path fill="#BCBEC0" d="M514.4,611.8c-0.4,0-0.7,0-1.1-0.1L177,562.1c-4.1-0.6-6.9-4.4-6.3-8.5c0.6-4.1,4.4-6.9,8.5-6.3&#10;&#9;&#9;&#9;&#9;&#9;l336.2,49.6c4.1,0.6,6.9,4.4,6.3,8.5C521.2,609.1,518,611.8,514.4,611.8z" transform="matrix(1, 0, 0, 1, 0, 0)"/><path fill="#939598" d="M454.4,750.3h-233c-4,0-7.3-3.3-7.3-7.3v0c0-4,3.3-7.3,7.3-7.3h233c4,0,7.3,3.3,7.3,7.3v0&#10;&#9;&#9;&#9;&#9;C461.7,747,458.4,750.3,454.4,750.3z" transform="matrix(1, 0, 0, 1, 0, 0)"/><path fill="#CCCCCC" d="M242.7,844.5h29.7c-6.4-14.6-21-24.9-37.9-24.9c-22.8,0-41.3,18.5-41.3,41.3h33.1c4.5,0,8.2-3.7,8.2-8.2&#10;&#9;&#9;&#9;&#9;v0C234.5,848.2,238.1,844.5,242.7,844.5z" transform="matrix(1, 0, 0, 1, 0, 0)"/><path d="M 506.500011 861 A 31.299999 31.299999 0 0 1 475.200012 892.299999 A 31.299999 31.299999 0 0 1 443.900013 861 A 31.299999 31.299999 0 0 1 475.200012 829.700001 A 31.299999 31.299999 0 0 1 506.500011 861 Z" fill="#616262" transform="matrix(1, 0, 0, 1, 0, 0)"/><path fill="#BCBEC0" d="M475.2,875.3c-7.9,0-14.3-6.4-14.3-14.3s6.4-14.3,14.3-14.3s14.3,6.4,14.3,14.3S483.1,875.3,475.2,875.3z&#10;&#9;&#9;&#9;&#9;" transform="matrix(1, 0, 0, 1, 0, 0)"/><path fill="#CCCCCC" d="M483.5,844.5h29.7c-6.4-14.6-21-24.9-37.9-24.9c-22.8,0-41.3,18.5-41.3,41.3H467c4.5,0,8.2-3.7,8.2-8.2v0&#10;&#9;&#9;&#9;&#9;C475.2,848.2,478.9,844.5,483.5,844.5z" transform="matrix(1, 0, 0, 1, 0, 0)"/><g transform="matrix(1, 0, 0, 1, 0, 0)">
				<path fill="#939598" d="M890.5,836.6H642.8v-7c0-8.3,3.5-16.3,9.6-21.9l44.8-41.7c3.2-3,5.1-7.3,5.1-11.7v-4h14v4&#10;&#9;&#9;&#9;&#9;&#9;c0,8.3-3.5,16.3-9.6,21.9L661.8,818c-1.4,1.3-2.6,2.9-3.5,4.7h232.1V836.6z"/>
			</g><path d="M 570 662.599976 H 731.199997 V 670.599976 H 570 V 662.599976 Z" transform="matrix(0.21140001714229584, 0.9774000644683838, -0.9774000644683838, 0.21140001714229584, 1164.644775390625, -110.22699737548828)" fill="#A7A9AC"/><path d="M 616.5 662.599976 H 775.199997 V 670.599976 H 616.5 V 662.599976 Z" transform="matrix(0.11940000206232071, 0.9927999973297119, -0.9927999973297119, 0.11940000206232071, 1274.547607421875, -103.80059814453125)" fill="#A7A9AC"/><path d="M 660.200012 662.599976 H 817.900009 V 670.599976 H 660.200012 V 662.599976 Z" transform="matrix(0.04794815927743912, 0.9988000392913818, -0.9988000392913818, 0.04794815927743912, 1369.49072265625, -103.58319854736328)" fill="#A7A9AC"/><path d="M 780.200012 587.799988 H 788.200012 V 745.499985 H 780.200012 V 587.799988 Z" transform="matrix(0.9988999962806702, 0.047855157405138016, -0.047855157405138016, 0.9988999962806702, 32.799400329589844, -36.76639938354493)" fill="#A7A9AC"/><path d="M 825.400024 587 H 833.400024 V 746.100006 H 825.400024 V 587 Z" transform="matrix(0.9898000359535217, 0.14259999990463257, -0.14259999990463257, 0.9898000359535217, 103.52210235595703, -111.44850158691406)" fill="#A7A9AC"/><path d="M 870.599976 585.599976 H 878.599976 V 747.599976 H 870.599976 V 585.599976 Z" transform="matrix(0.9724000096321106, 0.23340001702308655, -0.23340001702308655, 0.9724000096321106, 179.73460388183594, -185.70620727539062)" fill="#A7A9AC"/><path d="M 608.400024 621.900024 H 917.500031 V 629.900024 H 608.400024 V 621.900024 Z" fill="#BCBEC0" transform="matrix(1, 0, 0, 1, 0, 0)"/><path d="M 618.400024 662.599976 H 907.500031 V 670.599976 H 618.400024 V 662.599976 Z" fill="#BCBEC0" transform="matrix(1, 0, 0, 1, 0, 0)"/><path d="M 623.700012 699.900024 H 898.200012 V 707.900024 H 623.700012 V 699.900024 Z" fill="#BCBEC0" transform="matrix(1, 0, 0, 1, 0, 0)"/><path fill="#A7A9AC" d="M885.6,750.4L885.6,750.4c4.1,0,7.4-3.3,7.4-7.4l43.6-156.2c0-4.1-3.3-7.4-7.4-7.4l0,0&#10;&#9;&#9;&#9;&#9;c-4.1,0-7.4,3.3-7.4,7.4L878.3,743C878.3,747.1,881.6,750.4,885.6,750.4z" transform="matrix(1, 0, 0, 1, 0, 0)"/><path fill="#A7A9AC" d="M635.4,751c-3.4,0-6.5-2.4-7.3-5.9l-43.5-195.4h-33.2c-4.1,0-7.5-3.4-7.5-7.5s3.4-7.5,7.5-7.5h39.2&#10;&#9;&#9;&#9;&#9;&#9;c3.5,0,6.6,2.4,7.3,5.9l44.8,201.2c0.9,4-1.6,8.1-5.7,8.9C636.5,751,636,751,635.4,751z" transform="matrix(1, 0, 0, 1, 0, 0)"/><path d="M 681.099987 861 A 31.299999 31.299999 0 0 1 649.799988 892.299999 A 31.299999 31.299999 0 0 1 618.499989 861 A 31.299999 31.299999 0 0 1 649.799988 829.700001 A 31.299999 31.299999 0 0 1 681.099987 861 Z" fill="#616262" transform="matrix(1, 0, 0, 1, 0, 0)"/><path fill="#BCBEC0" d="M649.8,875.3c-7.9,0-14.3-6.4-14.3-14.3s6.4-14.3,14.3-14.3s14.3,6.4,14.3,14.3S657.7,875.3,649.8,875.3z&#10;&#9;&#9;&#9;&#9;" transform="matrix(1, 0, 0, 1, 0, 0)"/><path d="M 473.799988 531.599976 H 551.499985 V 552.899975 H 473.799988 V 531.599976 Z" fill="#EF6B60" transform="matrix(1, 0, 0, 1, 0, 0)"/><path fill="#CCCCCC" d="M658,844.5h29.7c-6.4-14.6-21-24.9-37.9-24.9c-22.8,0-41.3,18.5-41.3,41.3h33.1c4.5,0,8.2-3.7,8.2-8.2v0&#10;&#9;&#9;&#9;&#9;C649.8,848.2,653.4,844.5,658,844.5z" transform="matrix(1, 0, 0, 1, 0, 0)"/><path d="M 921.799999 861 A 31.299999 31.299999 0 0 1 890.5 892.299999 A 31.299999 31.299999 0 0 1 859.200001 861 A 31.299999 31.299999 0 0 1 890.5 829.700001 A 31.299999 31.299999 0 0 1 921.799999 861 Z" fill="#616262" transform="matrix(1, 0, 0, 1, 0, 0)"/><path fill="#BCBEC0" d="M890.5,875.3c-7.9,0-14.3-6.4-14.3-14.3s6.4-14.3,14.3-14.3s14.3,6.4,14.3,14.3S898.4,875.3,890.5,875.3z&#10;&#9;&#9;&#9;&#9;" transform="matrix(1, 0, 0, 1, 0, 0)"/><path fill="#CCCCCC" d="M898.7,844.5h29.7c-6.4-14.6-21-24.9-37.9-24.9c-22.8,0-41.3,18.5-41.3,41.3h33.1c4.5,0,8.2-3.7,8.2-8.2&#10;&#9;&#9;&#9;&#9;v0C890.5,848.2,894.2,844.5,898.7,844.5z" transform="matrix(1, 0, 0, 1, 0, 0)"/><path fill="#BCBEC0" d="M928.2,579.5H605.6c-4.6,0-8.4,3.7-8.4,8.4c0,4.6,3.7,8.4,8.4,8.4h322.6c4.6,0,8.4-3.7,8.4-8.4&#10;&#9;&#9;&#9;&#9;C936.6,583.2,932.8,579.5,928.2,579.5z" transform="matrix(1, 0, 0, 1, 0, 0)"/><path fill="#BCBEC0" d="M884.6,737H636.2c-4.6,0-8.4,3.7-8.4,8.4c0,4.6,3.7,8.4,8.4,8.4h248.4c4.6,0,8.4-3.7,8.4-8.4&#10;&#9;&#9;&#9;&#9;C893,740.8,889.2,737,884.6,737z" transform="matrix(1, 0, 0, 1, 0, 0)"/><g transform="matrix(1, 0, 0, 1, 0, 0)">
				<path fill="#939598" d="M1313.7,842.1H1079c-5.7,0-10.6-3.8-12.1-9.3l-73.3-278h-36.9c-6.9,0-12.5-5.6-12.5-12.5&#10;&#9;&#9;&#9;&#9;&#9;s5.6-12.5,12.5-12.5h46.5c5.7,0,10.6,3.8,12.1,9.3l73.3,278h225.1c6.9,0,12.5,5.6,12.5,12.5S1320.6,842.1,1313.7,842.1z"/>
			</g><path d="M 964.5 542 A 6 6 0 0 1 958.5 548 A 6 6 0 0 1 952.5 542 A 6 6 0 0 1 958.5 536 A 6 6 0 0 1 964.5 542 Z" fill="#E6E7E8" transform="matrix(1, 0, 0, 1, 0, 0)"/><path d="M 1100.29995 851.200012 A 41.099998 41.099998 0 0 1 1059.199951 892.300011 A 41.099998 41.099998 0 0 1 1018.099953 851.200012 A 41.099998 41.099998 0 0 1 1059.199951 810.100014 A 41.099998 41.099998 0 0 1 1100.29995 851.200012 Z" fill="#616262" transform="matrix(1, 0, 0, 1, 0, 0)"/><path fill="#BCBEC0" d="M1059.2,870c-10.4,0-18.8-8.4-18.8-18.8c0-10.4,8.4-18.8,18.8-18.8c10.4,0,18.8,8.4,18.8,18.8&#10;&#9;&#9;&#9;&#9;C1078,861.6,1069.6,870,1059.2,870z" transform="matrix(1, 0, 0, 1, 0, 0)"/><path d="M 1341.599998 851.200012 A 41.099998 41.099998 0 0 1 1300.5 892.300011 A 41.099998 41.099998 0 0 1 1259.400002 851.200012 A 41.099998 41.099998 0 0 1 1300.5 810.100014 A 41.099998 41.099998 0 0 1 1341.599998 851.200012 Z" fill="#616262" transform="matrix(1, 0, 0, 1, 0, 0)"/><path fill="#BCBEC0" d="M1300.5,870c-10.4,0-18.8-8.4-18.8-18.8c0-10.4,8.4-18.8,18.8-18.8c10.4,0,18.8,8.4,18.8,18.8&#10;&#9;&#9;&#9;&#9;C1319.2,861.6,1310.8,870,1300.5,870z" transform="matrix(1, 0, 0, 1, 0, 0)"/><path fill="#BCBEC0" d="M1333.2,596.2h-313.8c-4.6,0-8.4-3.7-8.4-8.4v0c0-4.6,3.7-8.4,8.4-8.4h313.8c4.6,0,8.4,3.7,8.4,8.4v0&#10;&#9;&#9;&#9;&#9;C1341.5,592.5,1337.8,596.2,1333.2,596.2z" transform="matrix(1, 0, 0, 1, 0, 0)"/><path fill="#999999" d="M1022.5,596.2l39.5,148.6h223.5c14,0,25.8-10.4,27.5-24.3l15.5-124.3H1022.5z M1300.3,644.9h-33.1&#10;&#9;&#9;&#9;&#9;&#9;l2.3-26.6h34.2L1300.3,644.9z M1111.9,658.4h37.6l1.3,24.5h-35.7L1111.9,658.4z M1100.9,682.9h-32.7l-6.5-24.5h36L1100.9,682.9z&#10;&#9;&#9;&#9;&#9;&#9; M1202.5,644.9H1163l-1.4-26.6h41.9L1202.5,644.9z M1217.6,618.2h37.7l-2.3,26.6h-36.3L1217.6,618.2z M1202,658.4l-0.8,24.5&#10;&#9;&#9;&#9;&#9;&#9;H1165l-1.3-24.5H1202z M1148.8,644.9h-38.6l-3.5-26.6h40.7L1148.8,644.9z M1151.6,696.4l1.4,26.5h-32.6l-3.5-26.5H1151.6z&#10;&#9;&#9;&#9;&#9;&#9; M1165.7,696.4h35.1l-0.9,26.5h-32.7L1165.7,696.4z M1215,696.4h33.6l-2.2,26.5h-32.3L1215,696.4z M1215.4,682.9l0.8-24.5h35.6&#10;&#9;&#9;&#9;&#9;&#9;l-2.1,24.5H1215.4z M1266,658.4h32.6l-3,24.5h-31.6L1266,658.4z M1092.4,618.2l3.5,26.6h-37.8l-7.1-26.6H1092.4z M1071.8,696.4&#10;&#9;&#9;&#9;&#9;&#9;h30.9l3.5,26.5h-27.3L1071.8,696.4z M1285.5,722.9h-24.9l2.2-26.5h31l-2.7,21.5C1290.8,720.7,1288.4,722.9,1285.5,722.9z" transform="matrix(1, 0, 0, 1, 0, 0)"/>
</svg>